#!OML:ASF E:\motion texture\Top Level 1\Subject 1\Session 1\male.ASF
:FULLY-SPECIFIED
:DEGREES
177
root 8.15224 18.041 3.59683 84.448 -80.3197 -78.5409
lowerback -1.13808 -1.39804 6.38627
upperback -1.52605 -1.98727 4.33205
thorax -0.993429 -1.08637 0.882172
lowerneck -8.78941 -7.27226 -6.49615
upperneck 20.8954 -12.0089 10.6766
head 9.02834 -5.38966 3.35124
rclavicle 7.66563e-015 5.1684e-014
rhumerus 30.8665 -22.3024 2.21309
rradius 119.054
rwrist -52.2776
rhand -3.3335 -27.098
rfingers 7.12502
rthumb 22.3939 -55.8199
lclavicle 7.66563e-015 5.1684e-014
lhumerus -37.8432 15.2199 72.104
lradius 27.2057
lwrist -25.0267
lhand -10.3938 16.3648
lfingers 7.12502
lthumb 15.6044 45.7553
rfemur -17.6917 2.49024 32.1666
rtibia 18.9855
rfoot -4.25028 -5.96609
rtoes 22.1069
lfemur -10.4295 -2.06909 -6.09921
ltibia 54.4637
lfoot 9.85408 -3.97417
ltoes -11.2573
178
root 8.02639 18.0514 3.57903 85.0398 -80.2703 -79.2302
lowerback -1.11992 -1.30579 6.43931
upperback -1.47042 -1.86528 4.28841
thorax -0.94554 -1.02371 0.806956
lowerneck -8.7049 -7.31307 -6.51177
upperneck 20.655 -12.0591 10.8013
head 8.94454 -5.41012 3.39237
rclavicle 9.44227e-015 4.57205e-015
rhumerus 29.9667 -20.3397 3.49416
rradius 118.509
rwrist -52.7235
rhand -2.71455 -27.4995
rfingers 7.12502
rthumb 22.9879 -56.1488
lclavicle 9.44227e-015 4.57205e-015
lhumerus -37.7216 15.1373 72.2977
lradius 27.4789
lwrist -24.7415
lhand -10.4681 16.4224
lfingers 7.12502
lthumb 15.5329 45.8185
rfemur -16.9564 2.49155 32.364
rtibia 18.7017
rfoot -4.56178 -5.85
rtoes 22.1974
lfemur -11.4332 -1.60994 -5.94313
ltibia 55.7424
lfoot 8.78904 -3.57224
ltoes -11.6767
179
root 7.90123 18.0622 3.5619 85.63 -80.2588 -79.8987
lowerback -1.12261 -1.21226 6.45003
upperback -1.41538 -1.74275 4.23319
thorax -0.885165 -0.959836 0.742695
lowerneck -8.63147 -7.34907 -6.54243
upperneck 20.4188 -12.1031 10.9404
head 8.86593 -5.42719 3.4412
rclavicle -1.86361e-015 -8.94531e-015
rhumerus 29.1315 -18.3214 4.67248
rradius 117.972
rwrist -53.0437
rhand -2.02048 -27.942
rfingers 7.12502
rthumb 23.6538 -56.5069
lclavicle -1.86361e-015 -8.94531e-015
lhumerus -37.584 15.0846 72.4877
lradius 27.7479
lwrist -24.4479
lhand -10.5225 16.4663
lfingers 7.12502
lthumb 15.4804 45.8665
rfemur -16.2355 2.49211 32.5106
rtibia 18.399
rfoot -4.86392 -5.74433
rtoes 22.3218
lfemur -12.4454 -1.14622 -5.84056
ltibia 56.8799
lfoot 7.71076 -3.18736
ltoes -11.8943
180
root 7.77695 18.0732 3.54527 86.2047 -80.2589 -80.5332
lowerback -1.13514 -1.11706 6.44649
upperback -1.36897 -1.618 4.17045
thorax -0.827628 -0.894792 0.678658
lowerneck -8.5845 -7.39203 -6.54789
upperneck 20.193 -12.1547 11.0545
head 8.79367 -5.447 3.47542
rclavicle 1.61885e-014 -1.88845e-014
rhumerus 28.3594 -16.2499 5.73292
rradius 117.447
rwrist -53.2761
rhand -1.28649 -28.4575
rfingers 7.12502
rthumb 24.3576 -56.9296
lclavicle 1.61885e-014 -1.88845e-014
lhumerus -37.4417 15.0549 72.6673
lradius 28.0085
lwrist -24.1645
lhand -10.5713 16.5061
lfingers 7.12502
lthumb 15.4334 45.91
rfemur -15.5261 2.49352 32.638
rtibia 18.0723
rfoot -5.14999 -5.64868
rtoes 22.4526
lfemur -13.4663 -0.686083 -5.75902
ltibia 57.8758
lfoot 6.65068 -2.82727
ltoes -11.9658
181
root 7.6535 18.084 3.52932 86.7751 -80.2535 -81.145
lowerback -1.15635 -1.01874 6.44702
upperback -1.33817 -1.48896 4.10522
thorax -0.781112 -0.828145 0.610082
lowerneck -8.55465 -7.43644 -6.54255
upperneck 19.9844 -12.2088 11.1563
head 8.72946 -5.46749 3.50277
rclavicle 4.52856e-015 1.17283e-014
rhumerus 27.6366 -14.1143 6.68486
rradius 116.946
rwrist -53.3981
rhand -0.608734 -29.0222
rfingers 7.12502
rthumb 25.0072 -57.4054
lclavicle 4.52856e-015 1.17283e-014
lhumerus -37.3132 15.0219 72.8445
lradius 28.2709
lwrist -23.879
lhand -10.6287 16.541
lfingers 7.12502
lthumb 15.3782 45.9491
rfemur -14.8304 2.50471 32.7644
rtibia 17.7313
rfoot -5.42512 -5.56124
rtoes 22.6048
lfemur -14.4962 -0.238715 -5.67961
ltibia 58.7302
lfoot 5.64164 -2.50446
ltoes -11.9912
182
root 7.53078 18.0943 3.51414 87.327 -80.231 -81.7255
lowerback -1.18187 -0.917992 6.46431
upperback -1.3167 -1.35681 4.04178
thorax -0.74176 -0.760482 0.534371
lowerneck -8.55732 -7.47919 -6.50723
upperneck 19.799 -12.2574 11.219
head 8.67427 -5.48478 3.51154
rclavicle -1.2511e-014 6.97734e-014
rhumerus 26.9639 -11.9451 7.5175
rradius 116.471
rwrist -53.4464
rhand 0.00197349 -29.6281
rfingers 7.12502
rthumb 25.5923 -57.9286
lclavicle -1.2511e-014 6.97734e-014
lhumerus -37.1904 14.9902 73.0247
lradius 28.5325
lwrist -23.6022
lhand -10.7092 16.5396
lfingers 7.12502
lthumb 15.3007 45.9536
rfemur -14.1431 2.52162 32.9031
rtibia 17.3777
rfoot -5.67585 -5.47264
rtoes 22.6891
lfemur -15.527 0.184886 -5.59084
ltibia 59.4446
lfoot 4.67705 -2.20788
ltoes -12.0388
183
root 7.40875 18.1039 3.49994 87.8484 -80.1843 -82.2656
lowerback -1.20654 -0.815854 6.50939
upperback -1.30446 -1.22269 3.98198
thorax -0.712499 -0.692571 0.447402
lowerneck -8.58443 -7.51758 -6.46362
upperneck 19.6341 -12.2991 11.2661
head 8.6284 -5.49821 3.51369
rclavicle 1.16413e-014 -3.20043e-014
rhumerus 26.3371 -9.74809 8.21946
rradius 116.025
rwrist -53.3869
rhand 0.517992 -30.2661
rfingers 7.12502
rthumb 26.0864 -58.4947
lclavicle 1.16413e-014 -3.20043e-014
lhumerus -37.0716 14.9443 73.216
lradius 28.7936
lwrist -23.3298
lhand -10.7939 16.6041
lfingers 7.12502
lthumb 15.219 46.0243
rfemur -13.4622 2.53781 33.0615
rtibia 17.0129
rfoot -5.90659 -5.38003
rtoes 22.7221
lfemur -16.5545 0.577389 -5.4858
ltibia 60.0215
lfoot 3.72557 -1.92601
ltoes -12.2308
184
root 7.28731 18.1124 3.48683 88.3388 -80.1184 -82.7688
lowerback -1.2314 -0.71225 6.57774
upperback -1.29602 -1.08687 3.92507
thorax -0.686901 -0.624243 0.350781
lowerneck -8.6262 -7.5443 -6.41893
upperneck 19.4823 -12.3225 11.3016
head 8.58706 -5.50305 3.51359
rclavicle 1.73937e-015 -2.67365e-014
rhumerus 25.7366 -7.54145 8.79184
rradius 115.611
rwrist -53.22
rhand 0.921004 -30.8973
rfingers 7.12502
rthumb 26.4722 -59.0683
lclavicle 1.73937e-015 -2.67365e-014
lhumerus -36.9552 14.8724 73.4273
lradius 29.0609
lwrist -23.0605
lhand -10.8874 16.6682
lfingers 7.12502
lthumb 15.1289 46.0952
rfemur -12.7846 2.54782 33.2337
rtibia 16.6389
rfoot -6.11427 -5.2777
rtoes 22.69
lfemur -17.5729 0.935852 -5.37075
ltibia 60.4637
lfoot 2.76152 -1.65377
ltoes -12.5714
185
root 7.16641 18.12 3.47487 88.7961 -80.0416 -83.2378
lowerback -1.25239 -0.608127 6.67269
upperback -1.28394 -0.950391 3.86107
thorax -0.659707 -0.555663 0.232327
lowerneck -8.66476 -7.56021 -6.38914
upperneck 19.3216 -12.3299 11.3514
head 8.54245 -5.50058 3.52283
rclavicle 4.62174e-015 -3.35946e-014
rhumerus 25.1436 -5.35942 9.21619
rradius 115.246
rwrist -52.9628
rhand 1.26606 -31.5273
rfingers 7.12502
rthumb 26.8025 -59.6481
lclavicle 4.62174e-015 -3.35946e-014
lhumerus -36.8238 14.7721 73.6518
lradius 29.3254
lwrist -22.7978
lhand -10.9942 16.7195
lfingers 7.12502
lthumb 15.0261 46.1543
rfemur -12.1104 2.54609 33.4101
rtibia 16.261
rfoot -6.313 -5.1699
rtoes 22.6363
lfemur -18.5735 1.25811 -5.25574
ltibia 60.772
lfoot 1.7884 -1.39689
ltoes -12.8991
186
root 7.04625 18.1263 3.46394 89.1897 -79.9591 -83.6363
lowerback -1.27074 -0.503019 6.78229
upperback -1.28245 -0.811732 3.79031
thorax -0.64442 -0.486548 0.0991244
lowerneck -8.65382 -7.57241 -6.35973
upperneck 19.1324 -12.3295 11.3989
head 8.47827 -5.49762 3.53422
rclavicle 1.71762e-015 3.47873e-014
rhumerus 24.5322 -3.18348 9.49372
rradius 114.941
rwrist -52.6223
rhand 1.53124 -32.1313
rfingers 7.12502
rthumb 27.0562 -60.2129
lclavicle 1.71762e-015 3.47873e-014
lhumerus -36.7006 14.6174 73.8929
lradius 29.5874
lwrist -22.5402
lhand -11.1008 16.7886
lfingers 7.12502
lthumb 14.9234 46.231
rfemur -11.4496 2.53114 33.5851
rtibia 15.8822
rfoot -6.50803 -5.06074
rtoes 22.5718
lfemur -19.566 1.54298 -5.14466
ltibia 60.9539
lfoot 0.791497 -1.14694
ltoes -13.1651
187
root 6.92674 18.1313 3.45401 89.5235 -79.8848 -83.9684
lowerback -1.28923 -0.399874 6.89272
upperback -1.28002 -0.675565 3.71157
thorax -0.627471 -0.418526 -0.0426577
lowerneck -8.6469 -7.57604 -6.37197
upperneck 18.9411 -12.3179 11.4827
head 8.41823 -5.48912 3.56578
rclavicle -1.17718e-015 6.10269e-014
rhumerus 23.8983 -1.03144 9.61071
rradius 114.694
rwrist -52.1535
rhand 1.71387 -32.6973
rfingers 7.12502
rthumb 27.2309 -60.7517
lclavicle -1.17718e-015 6.10269e-014
lhumerus -36.5661 14.4298 74.153
lradius 29.8408
lwrist -22.2923
lhand -11.225 16.8139
lfingers 7.12502
lthumb 14.8037 46.2651
rfemur -10.8082 2.50691 33.7425
rtibia 15.5135
rfoot -6.70715 -4.9613
rtoes 22.4985
lfemur -20.5457 1.78933 -5.05313
ltibia 61.0039
lfoot -0.211008 -0.906973
ltoes -13.228
188
root 6.80833 18.135 3.44472 89.7871 -79.8183 -84.2255
lowerback -1.28566 -0.299909 6.99856
upperback -1.29137 -0.540243 3.62561
thorax -0.636362 -0.351728 -0.188892
lowerneck -8.62924 -7.58487 -6.38406
upperneck 18.7407 -12.3111 11.5595
head 8.3533 -5.4842 3.59472
rclavicle -7.1081e-015 2.63141e-014
rhumerus 23.2364 1.12224 9.54382
rradius 114.497
rwrist -51.5092
rhand 1.82299 -33.2029
rfingers 7.12502
rthumb 27.3353 -61.2409
lclavicle -7.1081e-015 2.63141e-014
lhumerus -36.4405 14.2237 74.4145
lradius 30.0691
lwrist -22.0804
lhand -11.367 16.8101
lfingers 7.12502
lthumb 14.667 46.2713
rfemur -10.1883 2.48257 33.8864
rtibia 15.1585
rfoot -6.90945 -4.88359
rtoes 22.3967
lfemur -21.5133 2.00096 -4.97632
ltibia 60.9275
lfoot -1.22543 -0.672099
ltoes -13.1609
